<svg id="Capa_1" data-name="Capa 1" xmlns="http://www.w3.org/2000/svg" xmlns:xlink="http://www.w3.org/1999/xlink" viewBox="0 0 229.5 98.28"><defs><style>.cls-1,.cls-2,.cls-3{fill:none;}.cls-2{clip-rule:evenodd;}.cls-3{fill-rule:evenodd;}.cls-4{clip-path:url(#clip-path);}.cls-5{font-size:44.04px;fill:blue;stroke:blue;stroke-miterlimit:10;stroke-width:1.26px;font-family:EdwardianScriptITC, Edwardian Script ITC;}.cls-6{letter-spacing:0em;}.cls-7{letter-spacing:0em;}.cls-8{letter-spacing:0em;}.cls-9{letter-spacing:0em;}.cls-10{clip-path:url(#clip-path-2);}.cls-11{font-size:18px;font-family:TimesNewRomanPS-BoldItalicMT, Times New Roman;font-weight:700;font-style:italic;}.cls-12{letter-spacing:0em;}.cls-13{letter-spacing:0em;}.cls-14{letter-spacing:0em;}.cls-15{letter-spacing:0em;}</style><clipPath id="clip-path" transform="translate(-28.5 -17.37)"><rect class="cls-1" x="3.12" y="2.72" width="270.24" height="122.52"/></clipPath><clipPath id="clip-path-2" transform="translate(-28.5 -17.37)"><polygon class="cls-2" points="3.12 125.24 273.36 125.24 273.36 2.72 3.12 2.72 3.12 125.24 3.12 125.24"/></clipPath></defs><g class="cls-4"><text class="cls-5" transform="translate(52.2 36.74)"><tspan class="cls-6">A</tspan><tspan class="cls-7" x="40.04" y="0">xi</tspan><tspan class="cls-8" x="63.04" y="0">o</tspan><tspan class="cls-9" x="75.76" y="0">m</tspan><tspan x="99.76" y="0">a</tspan></text></g><g class="cls-10"><g class="cls-4"><text class="cls-11" transform="translate(0 68.77)">“</text></g><g class="cls-10"><g class="cls-4"><text class="cls-11" transform="translate(9 68.77)">Ed<tspan class="cls-12" x="21.01" y="0">u</tspan><tspan class="cls-13" x="30.98" y="0">c</tspan><tspan x="39.01" y="0">a</tspan><tspan class="cls-13" x="48.01" y="0">ci</tspan><tspan x="61.07" y="0">ó</tspan><tspan class="cls-14" x="70.07" y="0">n</tspan><tspan x="80.04" y="0"> </tspan></text></g><g class="cls-10"><g class="cls-4"><text class="cls-11" transform="translate(93.48 68.77)">R<tspan class="cls-13" x="12.01" y="0">e</tspan><tspan class="cls-12" x="20.03" y="0">s</tspan><tspan x="27" y="0">po</tspan><tspan class="cls-12" x="45" y="0">ns</tspan><tspan x="61.94" y="0">ab</tspan><tspan class="cls-13" x="79.94" y="0">le</tspan><tspan x="93.01" y="0">:</tspan><tspan class="cls-15" x="99" y="0"> </tspan><tspan x="103.55" y="0">E</tspan><tspan class="cls-12" x="115.56" y="0">s</tspan><tspan x="122.53" y="0">o </tspan></text></g><g class="cls-10"><g class="cls-4"><text class="cls-11" transform="translate(77.77 92.76)"><tspan class="cls-12">s</tspan><tspan x="6.97" y="0">o</tspan><tspan class="cls-13" x="15.97" y="0">m</tspan><tspan x="30.01" y="0">os</tspan></text></g><g class="cls-10"><g class="cls-4"><text class="cls-11" transform="translate(123.73 92.76)">.</text></g><g class="cls-10"><g class="cls-4"><text class="cls-11" transform="translate(132.72 92.76)">”</text></g></g></g></g></g></g></g></svg>