<svg id="Capa_1" data-name="Capa 1" xmlns="http://www.w3.org/2000/svg" xmlns:xlink="http://www.w3.org/1999/xlink" viewBox="0 0 252.02 95.89"><defs><style>.cls-1,.cls-2,.cls-3{fill:none;}.cls-2{clip-rule:evenodd;}.cls-3{fill-rule:evenodd;}.cls-4{clip-path:url(#clip-path);}.cls-5{font-size:44.04px;fill:blue;stroke:blue;stroke-miterlimit:10;stroke-width:1.26px;font-family:EdwardianScriptITC, Edwardian Script ITC;}.cls-6{letter-spacing:0em;}.cls-7{letter-spacing:0em;}.cls-8{letter-spacing:0em;}.cls-9{letter-spacing:0em;}.cls-10{letter-spacing:0em;}.cls-11{clip-path:url(#clip-path-2);}.cls-12{font-size:18px;font-family:TimesNewRomanPS-BoldItalicMT, Times New Roman;font-weight:700;font-style:italic;}.cls-13{letter-spacing:0em;}.cls-14{letter-spacing:0em;}.cls-15{letter-spacing:0em;}.cls-16{letter-spacing:0em;}.cls-17{letter-spacing:0em;}.cls-18{letter-spacing:0em;}.cls-19{letter-spacing:-0.01em;}.cls-20{letter-spacing:0em;}.cls-21{letter-spacing:0em;}</style><clipPath id="clip-path" transform="translate(-8.35 -16.66)"><rect class="cls-1" x="-0.34" y="1.92" width="270.84" height="120.12"/></clipPath><clipPath id="clip-path-2" transform="translate(-8.35 -16.66)"><polygon class="cls-2" points="-0.34 122.04 270.5 122.04 270.5 1.92 -0.34 1.92 -0.34 122.04 -0.34 122.04"/></clipPath></defs><g class="cls-4"><text class="cls-5" transform="translate(62.81 36.74)"><tspan class="cls-6">Co</tspan><tspan class="cls-7" x="47.96" y="0">r</tspan><tspan class="cls-8" x="60.28" y="0">o</tspan><tspan class="cls-9" x="73.1" y="0">l</tspan><tspan x="80.28" y="0">ar</tspan><tspan class="cls-10" x="107.68" y="0">i</tspan><tspan x="115.03" y="0">o</tspan></text></g><g class="cls-11"><g class="cls-4"><text class="cls-12" transform="translate(30.52 68.76)">“ </text></g><g class="cls-11"><g class="cls-4"><text class="cls-12" transform="translate(43.35 68.76)">Aq<tspan class="cls-13" x="21.01" y="0">u</tspan><tspan class="cls-14" x="30.98" y="0">í</tspan><tspan x="36.02" y="0"> </tspan></text></g><g class="cls-11"><g class="cls-4"><text class="cls-12" transform="translate(83.79 68.76)"><tspan class="cls-13">h</tspan><tspan x="9.97" y="0">a</tspan><tspan class="cls-14" x="18.97" y="0">cem</tspan><tspan x="49.06" y="0">o</tspan><tspan class="cls-13" x="58.06" y="0">s</tspan><tspan class="cls-15" x="65.03" y="0"> </tspan><tspan class="cls-14" x="69.58" y="0">l</tspan><tspan x="74.62" y="0">o</tspan><tspan class="cls-16" x="83.62" y="0"> </tspan><tspan class="cls-14" x="88.07" y="0">m</tspan><tspan x="102.11" y="0">áx</tspan><tspan class="cls-17" x="120.11" y="0">im</tspan><tspan x="139.18" y="0">o </tspan></text></g><g class="cls-11"><g class="cls-4"><text class="cls-12" transform="translate(2.2 90.37)">po<tspan class="cls-13" x="18" y="0">s</tspan><tspan class="cls-14" x="24.97" y="0">i</tspan><tspan x="30.01" y="0">b</tspan><tspan class="cls-14" x="39.01" y="0">le</tspan><tspan class="cls-18" x="52.07" y="0">,</tspan><tspan class="cls-19" x="56.62" y="0"> </tspan><tspan class="cls-20" x="60.94" y="0">n</tspan><tspan x="70.92" y="0">o</tspan><tspan class="cls-15" x="79.92" y="0"> </tspan><tspan class="cls-14" x="84.47" y="0">l</tspan><tspan x="89.51" y="0">o</tspan><tspan class="cls-21" x="98.51" y="0"> </tspan><tspan class="cls-14" x="102.95" y="0">mí</tspan><tspan class="cls-20" x="122.03" y="0">n</tspan><tspan class="cls-17" x="132" y="0">im</tspan><tspan x="151.08" y="0">o</tspan><tspan class="cls-16" x="160.08" y="0"> </tspan><tspan class="cls-13" x="164.52" y="0">n</tspan><tspan class="cls-14" x="174.5" y="0">ece</tspan><tspan class="cls-13" x="198.57" y="0">s</tspan><tspan x="205.54" y="0">a</tspan><tspan class="cls-13" x="214.54" y="0">r</tspan><tspan class="cls-14" x="221.51" y="0">i</tspan><tspan x="226.55" y="0">o</tspan><tspan class="cls-15" x="235.55" y="0">.</tspan><tspan x="240.1" y="0">”</tspan></text></g></g></g></g></g></svg>