<svg id="Capa_1" data-name="Capa 1" xmlns="http://www.w3.org/2000/svg" xmlns:xlink="http://www.w3.org/1999/xlink" viewBox="0 0 223.58 96.26"><defs><style>.cls-1,.cls-2,.cls-3{fill:none;}.cls-2{clip-rule:evenodd;}.cls-3{fill-rule:evenodd;}.cls-4{clip-path:url(#clip-path);}.cls-5{font-size:44.04px;fill:blue;stroke:blue;stroke-miterlimit:10;stroke-width:1.26px;font-family:EdwardianScriptITC, Edwardian Script ITC;}.cls-6{letter-spacing:0em;}.cls-7{letter-spacing:0em;}.cls-8{letter-spacing:0em;}.cls-9{letter-spacing:0em;}.cls-10{clip-path:url(#clip-path-2);}.cls-11,.cls-24{font-size:18px;font-weight:700;}.cls-11{fill:#002060;font-family:TimesNewRomanPS-BoldMT, Times New Roman;}.cls-12{letter-spacing:0em;}.cls-13{letter-spacing:0em;}.cls-14{letter-spacing:0em;}.cls-15{letter-spacing:0.01em;}.cls-16{letter-spacing:-0.01em;}.cls-17{letter-spacing:0em;}.cls-18{letter-spacing:0em;}.cls-19{letter-spacing:-0.02em;}.cls-20{letter-spacing:0em;}.cls-21{letter-spacing:-0.02em;}.cls-22{letter-spacing:0em;}.cls-23{letter-spacing:-0.02em;}.cls-24{font-family:TimesNewRomanPS-BoldItalicMT, Times New Roman;font-style:italic;}</style><clipPath id="clip-path" transform="translate(-25.09 -14.66)"><rect class="cls-1" x="0.12" y="-0.08" width="270.24" height="120.12"/></clipPath><clipPath id="clip-path-2" transform="translate(-25.09 -14.66)"><polygon class="cls-2" points="0.12 120.04 270.36 120.04 270.36 -0.08 0.12 -0.08 0.12 120.04 0.12 120.04"/></clipPath></defs><g class="cls-4"><text class="cls-5" transform="translate(61.67 36.74)"><tspan class="cls-6">M</tspan><tspan class="cls-7" x="43.16" y="0">i</tspan><tspan class="cls-8" x="50.69" y="0">s</tspan><tspan class="cls-9" x="59.31" y="0">ió</tspan><tspan x="79.4" y="0">n</tspan></text></g><g class="cls-10"><g class="cls-4"><text class="cls-11" transform="translate(1.08 68.76)">“ </text></g><g class="cls-10"><g class="cls-4"><text class="cls-11" transform="translate(14.52 68.76)">E<tspan class="cls-12" x="12.01" y="0">ns</tspan><tspan class="cls-13" x="28.95" y="0">e</tspan><tspan class="cls-14" x="36.97" y="0">ñ</tspan><tspan x="46.95" y="0">amo</tspan><tspan class="cls-12" x="79.94" y="0">s</tspan><tspan x="86.91" y="0"> </tspan></text></g><g class="cls-10"><g class="cls-4"><text class="cls-11" transform="translate(106.08 68.76)"><tspan class="cls-15">y</tspan><tspan class="cls-16" x="9.11" y="0"> </tspan><tspan class="cls-12" x="13.43" y="0">s</tspan><tspan class="cls-17" x="20.4" y="0">er</tspan><tspan x="36.45" y="0">v</tspan><tspan class="cls-17" x="45.45" y="0">i</tspan><tspan x="50.48" y="0">mo</tspan><tspan class="cls-12" x="74.48" y="0">s</tspan><tspan class="cls-18" x="81.45" y="0"> </tspan><tspan class="cls-17" x="86" y="0">c</tspan><tspan x="94.03" y="0">o</tspan><tspan class="cls-12" x="103.03" y="0">n</tspan><tspan x="113" y="0"> </tspan></text></g><g class="cls-10"><g class="cls-4"><text class="cls-11" transform="translate(0 90.37)">amo<tspan class="cls-19" x="32.99" y="0">r</tspan><tspan class="cls-20" x="40.68" y="0"> </tspan><tspan class="cls-12" x="45.12" y="0">p</tspan><tspan x="55.1" y="0">a</tspan><tspan class="cls-17" x="64.1" y="0">r</tspan><tspan x="72.12" y="0">a</tspan><tspan class="cls-18" x="81.12" y="0"> </tspan><tspan x="85.68" y="0">ga</tspan><tspan class="cls-14" x="103.68" y="0">n</tspan><tspan x="113.65" y="0">a</tspan><tspan class="cls-21" x="122.65" y="0">r</tspan><tspan class="cls-22" x="130.33" y="0"> </tspan><tspan x="134.89" y="0">t</tspan><tspan class="cls-12" x="140.88" y="0">u</tspan><tspan x="150.86" y="0"> </tspan></text></g><g class="cls-10"><g class="cls-4"><text class="cls-11" transform="translate(155.4 90.37)"><tspan class="cls-23">r</tspan><tspan class="cls-17" x="7.68" y="0">e</tspan><tspan class="cls-12" x="15.71" y="0">sp</tspan><tspan class="cls-17" x="32.65" y="0">e</tspan><tspan x="40.68" y="0">to</tspan></text></g><g class="cls-10"><g class="cls-4"><text class="cls-24" transform="translate(211.08 90.37)">”</text></g></g></g></g></g></g></g></svg>