<svg id="Capa_1" data-name="Capa 1" xmlns="http://www.w3.org/2000/svg" xmlns:xlink="http://www.w3.org/1999/xlink" viewBox="0 0 252.52 107.25"><defs><style>.cls-1,.cls-2,.cls-3{fill:none;}.cls-2{clip-rule:evenodd;}.cls-3{fill-rule:evenodd;}.cls-4{clip-path:url(#clip-path);}.cls-5{font-size:18px;font-family:TimesNewRomanPS-BoldMT, Times New Roman;font-weight:700;}.cls-16,.cls-5{fill:#002060;}.cls-6{letter-spacing:0em;}.cls-7{letter-spacing:0em;}.cls-8{letter-spacing:0em;}.cls-9{letter-spacing:0em;}.cls-10{letter-spacing:0em;}.cls-11{letter-spacing:0em;}.cls-12{letter-spacing:0em;}.cls-13{letter-spacing:0em;}.cls-14{clip-path:url(#clip-path-2);}.cls-15{letter-spacing:0em;}.cls-16{font-size:16.56px;font-family:Wingdings-Regular, Wingdings;}.cls-17{letter-spacing:0em;}.cls-18{letter-spacing:-0.01em;}.cls-19{letter-spacing:0em;}</style><clipPath id="clip-path" transform="translate(-10.84 -9.69)"><rect class="cls-1" x="-0.05" y="1.82" width="274.2" height="124.32"/></clipPath><clipPath id="clip-path-2" transform="translate(-10.84 -9.69)"><polygon class="cls-2" points="-0.05 126.14 274.15 126.14 274.15 1.82 -0.05 1.82 -0.05 126.14 -0.05 126.14"/></clipPath></defs><g class="cls-4"><text class="cls-5" transform="translate(0 14.96)">Ba<tspan class="cls-6" x="21.01" y="0">s</tspan><tspan x="27.97" y="0">a</tspan><tspan class="cls-7" x="36.97" y="0">d</tspan><tspan x="46.95" y="0">o</tspan><tspan class="cls-6" x="55.95" y="0">s</tspan><tspan class="cls-8" x="62.92" y="0"> </tspan><tspan class="cls-9" x="67.47" y="0">e</tspan><tspan class="cls-6" x="75.5" y="0">n</tspan><tspan class="cls-10" x="85.47" y="0"> </tspan><tspan class="cls-9" x="90.03" y="0">l</tspan><tspan x="95.06" y="0">o</tspan><tspan class="cls-6" x="104.06" y="0">s</tspan><tspan class="cls-11" x="111.03" y="0"> </tspan><tspan class="cls-7" x="115.48" y="0">p</tspan><tspan class="cls-9" x="125.45" y="0">ri</tspan><tspan class="cls-6" x="138.52" y="0">n</tspan><tspan class="cls-9" x="148.49" y="0">ci</tspan><tspan class="cls-12" x="161.55" y="0">p</tspan><tspan class="cls-13" x="171.53" y="0">i</tspan><tspan x="176.56" y="0">o</tspan><tspan class="cls-12" x="185.56" y="0">s</tspan><tspan class="cls-8" x="192.53" y="0"> </tspan><tspan class="cls-6" x="197.09" y="0">d</tspan><tspan class="cls-9" x="207.06" y="0">e</tspan><tspan x="215.09" y="0"> </tspan></text></g><g class="cls-14"><g class="cls-4"><text class="cls-5" transform="translate(0 36.56)"><tspan class="cls-6">p</tspan><tspan class="cls-9" x="9.97" y="0">e</tspan><tspan class="cls-6" x="18" y="0">d</tspan><tspan x="27.97" y="0">agog</tspan><tspan class="cls-9" x="63.97" y="0">í</tspan><tspan x="69.01" y="0">a</tspan><tspan class="cls-11" x="78.01" y="0"> </tspan><tspan class="cls-9" x="82.46" y="0">c</tspan><tspan x="90.48" y="0">o</tspan><tspan class="cls-6" x="99.48" y="0">n</tspan><tspan class="cls-9" x="109.46" y="0">ce</tspan><tspan class="cls-7" x="125.51" y="0">p</tspan><tspan x="135.48" y="0">t</tspan><tspan class="cls-6" x="141.48" y="0">u</tspan><tspan x="151.45" y="0">a</tspan><tspan class="cls-9" x="160.45" y="0">l</tspan><tspan class="cls-8" x="165.49" y="0"> </tspan><tspan x="170.04" y="0">fo</tspan><tspan class="cls-9" x="185.04" y="0">r</tspan><tspan x="193.06" y="0">mamo</tspan><tspan class="cls-6" x="241.05" y="0">s</tspan><tspan x="248.02" y="0"> </tspan></text></g><g class="cls-14"><g class="cls-4"><text class="cls-5" transform="translate(0 58.15)"><tspan class="cls-9">e</tspan><tspan class="cls-6" x="8.03" y="0">s</tspan><tspan x="14.99" y="0">t</tspan><tspan class="cls-6" x="20.99" y="0">ud</tspan><tspan class="cls-15" x="40.94" y="0">i</tspan><tspan x="45.97" y="0">a</tspan><tspan class="cls-7" x="54.97" y="0">n</tspan><tspan x="64.95" y="0">t</tspan><tspan class="cls-15" x="70.94" y="0">e</tspan><tspan class="cls-7" x="78.97" y="0">s</tspan><tspan x="85.94" y="0">:</tspan></text></g><g class="cls-14"><g class="cls-4"><text class="cls-16" transform="translate(0.01 79.76)"></text></g><g class="cls-14"><g class="cls-4"><text class="cls-5" transform="translate(22.55 79.76)"><tspan class="cls-6">A</tspan><tspan x="12.96" y="0">f</tspan><tspan class="cls-9" x="18.96" y="0">ec</tspan><tspan x="35.01" y="0">t</tspan><tspan class="cls-15" x="41" y="0">i</tspan><tspan x="46.04" y="0">vam</tspan><tspan class="cls-9" x="79.03" y="0">e</tspan><tspan class="cls-6" x="87.06" y="0">n</tspan><tspan x="97.03" y="0">t</tspan><tspan class="cls-17" x="103.03" y="0">e</tspan><tspan class="cls-18" x="111.05" y="0"> </tspan><tspan class="cls-6" x="115.37" y="0">p</tspan><tspan class="cls-9" x="125.35" y="0">le</tspan><tspan class="cls-6" x="138.41" y="0">n</tspan><tspan x="148.38" y="0">os</tspan></text></g><g class="cls-14"><g class="cls-4"><text class="cls-16" transform="translate(0.01 101.36)"></text></g><g class="cls-14"><g class="cls-4"><text class="cls-5" transform="translate(22.55 101.36)"><tspan class="cls-6">C</tspan><tspan x="12.96" y="0">og</tspan><tspan class="cls-7" x="30.96" y="0">n</tspan><tspan class="cls-15" x="40.94" y="0">i</tspan><tspan x="45.97" y="0">t</tspan><tspan class="cls-9" x="51.97" y="0">i</tspan><tspan x="57.01" y="0">vam</tspan><tspan class="cls-9" x="90" y="0">e</tspan><tspan class="cls-6" x="98.03" y="0">n</tspan><tspan x="108" y="0">t</tspan><tspan class="cls-9" x="113.99" y="0">e</tspan><tspan class="cls-19" x="122.02" y="0"> </tspan><tspan class="cls-6" x="126.47" y="0">b</tspan><tspan class="cls-9" x="136.44" y="0">rill</tspan><tspan x="159.58" y="0">a</tspan><tspan class="cls-6" x="168.58" y="0">n</tspan><tspan x="178.55" y="0">t</tspan><tspan class="cls-9" x="184.54" y="0">e</tspan><tspan x="192.57" y="0">s</tspan></text></g></g></g></g></g></g></g></svg>