<svg id="Capa_1" data-name="Capa 1" xmlns="http://www.w3.org/2000/svg" xmlns:xlink="http://www.w3.org/1999/xlink" viewBox="0 0 203.86 126.06"><defs><style>.cls-1,.cls-2,.cls-3{fill:none;}.cls-2{clip-rule:evenodd;}.cls-3{fill-rule:evenodd;}.cls-4{clip-path:url(#clip-path);}.cls-18,.cls-19,.cls-5{font-size:13.38px;}.cls-19,.cls-5{font-family:TimesNewRomanPS-BoldMT, Times New Roman;font-weight:700;}.cls-6{letter-spacing:0em;}.cls-7{letter-spacing:0em;}.cls-8{letter-spacing:0em;}.cls-9{letter-spacing:0em;}.cls-10{letter-spacing:0em;}.cls-11{letter-spacing:0em;}.cls-12{letter-spacing:0em;}.cls-13{letter-spacing:0em;}.cls-14{clip-path:url(#clip-path-2);}.cls-15{letter-spacing:0em;}.cls-16{letter-spacing:0em;}.cls-17{letter-spacing:0em;}.cls-18,.cls-19{fill:#002060;}.cls-18{font-family:Wingdings-Regular, Wingdings;}.cls-20{letter-spacing:-0.01em;}.cls-21{letter-spacing:-0.02em;}</style><clipPath id="clip-path"><rect class="cls-1" y="-3.1" width="203.86" height="126.33"/></clipPath><clipPath id="clip-path-2"><polygon class="cls-2" points="0 123.23 203.86 123.23 203.86 -3.1 0 -3.1 0 123.23 0 123.23"/></clipPath></defs><g class="cls-4"><text class="cls-5" transform="translate(8.06 13.9)">Ba<tspan class="cls-6" x="15.62" y="0">s</tspan><tspan class="cls-7" x="20.8" y="0">a</tspan><tspan class="cls-8" x="27.49" y="0">d</tspan><tspan x="34.91" y="0">o</tspan><tspan class="cls-8" x="41.6" y="0">s</tspan><tspan class="cls-9" x="46.78" y="0"> </tspan><tspan class="cls-10" x="50.16" y="0">e</tspan><tspan class="cls-8" x="56.13" y="0">n</tspan><tspan class="cls-9" x="63.55" y="0"> </tspan><tspan class="cls-10" x="66.93" y="0">l</tspan><tspan class="cls-7" x="70.68" y="0">o</tspan><tspan class="cls-6" x="77.37" y="0">s</tspan><tspan class="cls-11" x="82.55" y="0"> </tspan><tspan class="cls-8" x="85.86" y="0">p</tspan><tspan class="cls-10" x="93.27" y="0">ri</tspan><tspan class="cls-8" x="102.98" y="0">n</tspan><tspan class="cls-10" x="110.4" y="0">ci</tspan><tspan class="cls-6" x="120.11" y="0">p</tspan><tspan class="cls-12" x="127.53" y="0">i</tspan><tspan class="cls-13" x="131.27" y="0">o</tspan><tspan class="cls-6" x="137.96" y="0">s</tspan><tspan class="cls-9" x="143.14" y="0"> </tspan><tspan class="cls-6" x="146.53" y="0">d</tspan><tspan class="cls-12" x="153.95" y="0">e</tspan><tspan x="159.91" y="0"> </tspan></text></g><g class="cls-14"><g class="cls-4"><text class="cls-5" transform="translate(8.06 29.96)"><tspan class="cls-8">p</tspan><tspan class="cls-10" x="7.42" y="0">e</tspan><tspan class="cls-8" x="13.38" y="0">d</tspan><tspan class="cls-7" x="20.8" y="0">agog</tspan><tspan class="cls-15" x="47.56" y="0">í</tspan><tspan x="51.31" y="0">a</tspan><tspan class="cls-16" x="58" y="0"> </tspan><tspan class="cls-15" x="61.31" y="0">c</tspan><tspan x="67.27" y="0">o</tspan><tspan class="cls-8" x="73.96" y="0">n</tspan><tspan class="cls-10" x="81.38" y="0">ce</tspan><tspan class="cls-8" x="93.31" y="0">p</tspan><tspan x="100.73" y="0">t</tspan><tspan class="cls-8" x="105.19" y="0">u</tspan><tspan x="112.6" y="0">a</tspan><tspan class="cls-12" x="119.29" y="0">l</tspan><tspan class="cls-9" x="123.04" y="0"> </tspan><tspan x="126.42" y="0">fo</tspan><tspan class="cls-12" x="137.57" y="0">r</tspan><tspan x="143.54" y="0">mamo</tspan><tspan class="cls-17" x="179.22" y="0">s</tspan><tspan x="184.4" y="0"> </tspan></text></g><g class="cls-14"><g class="cls-4"><text class="cls-5" transform="translate(8.06 46.02)"><tspan class="cls-10">e</tspan><tspan class="cls-8" x="5.97" y="0">s</tspan><tspan x="11.15" y="0">t</tspan><tspan class="cls-8" x="15.6" y="0">ud</tspan><tspan class="cls-15" x="30.44" y="0">i</tspan><tspan x="34.18" y="0">a</tspan><tspan class="cls-8" x="40.87" y="0">n</tspan><tspan x="48.29" y="0">t</tspan><tspan class="cls-15" x="52.75" y="0">e</tspan><tspan class="cls-6" x="58.71" y="0">s</tspan><tspan x="63.89" y="0">:</tspan></text></g><g class="cls-14"><g class="cls-4"><text class="cls-18" transform="translate(8.06 68.06)"></text></g><g class="cls-14"><g class="cls-4"><text class="cls-19" transform="translate(24.83 68.06)"><tspan class="cls-8">A</tspan><tspan x="9.64" y="0">f</tspan><tspan class="cls-10" x="14.09" y="0">ec</tspan><tspan x="26.03" y="0">t</tspan><tspan class="cls-10" x="30.48" y="0">i</tspan><tspan class="cls-7" x="34.23" y="0">vam</tspan><tspan class="cls-10" x="58.76" y="0">e</tspan><tspan class="cls-8" x="64.73" y="0">n</tspan><tspan x="72.14" y="0">t</tspan><tspan class="cls-15" x="76.6" y="0">e</tspan><tspan class="cls-20" x="82.56" y="0"> </tspan><tspan class="cls-8" x="85.78" y="0">p</tspan><tspan class="cls-15" x="93.19" y="0">le</tspan><tspan class="cls-6" x="102.9" y="0">n</tspan><tspan x="110.32" y="0">o</tspan><tspan class="cls-6" x="117.01" y="0">s</tspan><tspan class="cls-13" x="122.19" y="0"> </tspan></text></g><g class="cls-14"><g class="cls-4"><text class="cls-18" transform="translate(8.06 90.01)"></text></g><g class="cls-14"><g class="cls-4"><text class="cls-19" transform="translate(24.83 90.01)"><tspan class="cls-8">C</tspan><tspan x="9.64" y="0">og</tspan><tspan class="cls-8" x="23.02" y="0">n</tspan><tspan class="cls-15" x="30.44" y="0">i</tspan><tspan x="34.18" y="0">t</tspan><tspan class="cls-10" x="38.64" y="0">i</tspan><tspan class="cls-7" x="42.38" y="0">vam</tspan><tspan class="cls-10" x="66.91" y="0">e</tspan><tspan class="cls-8" x="72.88" y="0">n</tspan><tspan x="80.3" y="0">t</tspan><tspan class="cls-15" x="84.75" y="0">e</tspan><tspan class="cls-16" x="90.72" y="0"> </tspan><tspan class="cls-8" x="94.02" y="0">b</tspan><tspan class="cls-10" x="101.44" y="0">rill</tspan><tspan x="118.64" y="0">a</tspan><tspan class="cls-6" x="125.33" y="0">n</tspan><tspan x="132.75" y="0">t</tspan><tspan class="cls-12" x="137.21" y="0">e</tspan><tspan x="143.17" y="0">s</tspan></text></g><g class="cls-14"><g class="cls-4"><text class="cls-18" transform="translate(8.06 112.04)"></text></g><g class="cls-14"><g class="cls-4"><text class="cls-19" transform="translate(24.83 112.04)">Ex<tspan class="cls-8" x="15.62" y="0">p</tspan><tspan class="cls-21" x="23.03" y="0">r</tspan><tspan class="cls-10" x="28.75" y="0">e</tspan><tspan class="cls-8" x="34.71" y="0">s</tspan><tspan class="cls-10" x="39.89" y="0">i</tspan><tspan class="cls-7" x="43.64" y="0">vam</tspan><tspan class="cls-10" x="68.17" y="0">e</tspan><tspan class="cls-8" x="74.14" y="0">n</tspan><tspan class="cls-7" x="81.55" y="0">t</tspan><tspan class="cls-10" x="86.01" y="0">e</tspan><tspan class="cls-16" x="91.97" y="0"> </tspan><tspan x="95.28" y="0">ta</tspan><tspan class="cls-12" x="106.43" y="0">le</tspan><tspan class="cls-6" x="116.14" y="0">n</tspan><tspan x="123.56" y="0">to</tspan><tspan class="cls-6" x="134.7" y="0">s</tspan><tspan x="139.88" y="0">os</tspan></text></g></g></g></g></g></g></g></g></g></svg>