<svg id="Capa_1" enable-background="new 0 0 512 512" height="512" viewBox="0 0 512 512" width="512" xmlns="http://www.w3.org/2000/svg"><g><path d="m322.065 0h-305.549l-6.699 16.516v469.968c0 9.122 7.395 16.516 16.516 16.516h370.054l16.516-7.516v-404.645z" fill="#eceaec"/><path d="m222.968 140.387h82.581v16.516h-82.581z" fill="#6f6571"/><path d="m173.419 206.452h115.613v16.516h-115.613z" fill="#5d5360"/><path d="m107.355 338.581h99.097v16.516h-99.097z" fill="#5d5360"/><path d="m165.161 421.161h-90.838c-4.561 0-8.258-3.697-8.258-8.258 0-4.561 3.697-8.258 8.258-8.258h90.839v16.516z" fill="#6f6571"/><path d="m272.516 289.032h-198.193c-4.561 0-8.258-3.697-8.258-8.258 0-4.561 3.697-8.258 8.258-8.258h198.194v16.516z" fill="#6f6571"/><path d="m16.516 470.71v-470.71c-9.121 0-16.516 7.394-16.516 16.516v478.968c0 9.121 7.395 16.516 16.516 16.516h379.871c9.121 0 16.516-7.395 16.516-16.516h-371.613c-13.682 0-24.774-11.092-24.774-24.774z" fill="#dad8db"/><path d="m412.903 89.421c0-4.38-1.74-8.581-4.838-11.679l-72.907-72.905c-3.098-3.097-7.299-4.837-11.679-4.837h-1.415v82.581c0 4.56 3.697 8.258 8.258 8.258h82.581z" fill="#dad8db"/><g fill="#fff"><path d="m173.419 231.226h-90.838c-4.561 0-8.258-3.697-8.258-8.258v-16.516c0-4.561 3.697-8.258 8.258-8.258h90.839c4.561 0 8.258 3.697 8.258 8.258v16.516c-.001 4.561-3.698 8.258-8.259 8.258z"/><path d="m330.323 231.226h-41.29c-4.561 0-8.258-3.697-8.258-8.258v-16.516c0-4.561 3.697-8.258 8.258-8.258h41.29c4.561 0 8.258 3.697 8.258 8.258v16.516c0 4.561-3.698 8.258-8.258 8.258z"/><path d="m222.968 165.161h-140.387c-4.561 0-8.258-3.697-8.258-8.258v-16.516c0-4.561 3.697-8.258 8.258-8.258h140.387c4.561 0 8.258 3.697 8.258 8.258v16.516c0 4.561-3.697 8.258-8.258 8.258z"/><path d="m330.323 165.161h-24.774c-4.561 0-8.258-3.697-8.258-8.258v-16.516c0-4.561 3.697-8.258 8.258-8.258h24.774c4.561 0 8.258 3.697 8.258 8.258v16.516c0 4.561-3.698 8.258-8.258 8.258z"/><path d="m115.613 363.355h-33.032c-4.561 0-8.258-3.697-8.258-8.258v-16.516c0-4.561 3.697-8.258 8.258-8.258h33.032c4.561 0 8.258 3.697 8.258 8.258v16.516c0 4.561-3.697 8.258-8.258 8.258z"/><path d="m272.516 363.355h-74.323c-4.561 0-8.258-3.697-8.258-8.258v-16.516c0-4.561 3.697-8.258 8.258-8.258h74.323c4.561 0 8.258 3.697 8.258 8.258v16.516c0 4.561-3.697 8.258-8.258 8.258z"/><path d="m247.742 429.419h-90.839c-4.561 0-8.258-3.697-8.258-8.258v-16.516c0-4.561 3.697-8.258 8.258-8.258h90.839c4.561 0 8.258 3.697 8.258 8.258v16.516c0 4.561-3.697 8.258-8.258 8.258z"/><path d="m222.968 297.29h-66.065c-4.561 0-8.258-3.697-8.258-8.258v-16.516c0-4.561 3.697-8.258 8.258-8.258h66.065c4.561 0 8.258 3.697 8.258 8.258v16.516c0 4.561-3.697 8.258-8.258 8.258z"/><path d="m330.323 297.29h-57.806c-4.561 0-8.258-3.697-8.258-8.258v-16.516c0-4.561 3.697-8.258 8.258-8.258h57.806c4.561 0 8.258 3.697 8.258 8.258v16.516c0 4.561-3.698 8.258-8.258 8.258z"/></g><path d="m509.581 212.291-11.679-11.679c-3.225-3.225-8.454-3.225-11.679 0l-17.518 17.518 2.919 23.495 20.438-.137 17.518-17.518c3.226-3.225 3.226-8.454.001-11.679z" fill="#b6b1b7"/><path d="m342.333 365.333-19.611-1.22-13.383 13.383c-2.72 2.72-4.769 6.035-5.985 9.684l-6.454 19.361c-1.391 4.172 2.579 8.142 6.751 6.751l19.361-6.454c3.649-1.216 6.964-3.265 9.684-5.985l13.382-13.383z" fill="#5d5360"/><path d="m304.167 286.284h206.452v33.032h-206.452z" fill="#857e87" transform="matrix(.707 -.707 .707 .707 -94.79 376.753)"/></g></svg>