<svg id="Capa_1" data-name="Capa 1" xmlns="http://www.w3.org/2000/svg" xmlns:xlink="http://www.w3.org/1999/xlink" viewBox="0 0 252.37 107.26"><defs><style>.cls-1,.cls-2,.cls-3{fill:none;}.cls-2{clip-rule:evenodd;}.cls-3{fill-rule:evenodd;}.cls-4{clip-path:url(#clip-path);}.cls-5{font-size:16.56px;font-family:Wingdings-Regular, Wingdings;}.cls-5,.cls-7{fill:#002060;}.cls-6{clip-path:url(#clip-path-2);}.cls-7{font-size:18px;font-family:TimesNewRomanPS-BoldMT, Times New Roman;font-weight:700;}.cls-8{letter-spacing:0em;}.cls-9{letter-spacing:0em;}.cls-10{letter-spacing:0em;}.cls-11{letter-spacing:-0.07em;}.cls-12{letter-spacing:0em;}.cls-13{letter-spacing:0.01em;}.cls-14{letter-spacing:0em;}.cls-15{letter-spacing:-0.02em;}.cls-16{letter-spacing:0em;}.cls-17{letter-spacing:0em;}.cls-18{letter-spacing:0em;}</style><clipPath id="clip-path" transform="translate(-8.07 -9.66)"><rect class="cls-1" x="-1.14" y="1.82" width="272.4" height="124.32"/></clipPath><clipPath id="clip-path-2" transform="translate(-8.07 -9.66)"><polygon class="cls-2" points="-1.14 126.14 271.26 126.14 271.26 1.82 -1.14 1.82 -1.14 126.14 -1.14 126.14"/></clipPath></defs><g class="cls-4"><text class="cls-5" transform="translate(0 14.96)"></text></g><g class="cls-6"><g class="cls-4"><text class="cls-7" transform="translate(22.56 14.96)"><tspan class="cls-8">H</tspan><tspan x="14.04" y="0">o</tspan><tspan class="cls-9" x="23.04" y="0">n</tspan><tspan class="cls-8" x="33.01" y="0">e</tspan><tspan class="cls-9" x="41.04" y="0">s</tspan><tspan x="48.01" y="0">t</tspan><tspan class="cls-8" x="54" y="0">i</tspan><tspan class="cls-9" x="59.04" y="0">d</tspan><tspan x="69.01" y="0">ad</tspan></text></g><g class="cls-6"><g class="cls-4"><text class="cls-5" transform="translate(0 36.57)"></text></g><g class="cls-6"><g class="cls-4"><text class="cls-7" transform="translate(22.56 36.57)"><tspan class="cls-9">Un</tspan><tspan class="cls-10" x="22.94" y="0"> </tspan><tspan class="cls-8" x="27.49" y="0">e</tspan><tspan class="cls-9" x="35.52" y="0">qu</tspan><tspan class="cls-8" x="55.47" y="0">i</tspan><tspan class="cls-9" x="60.5" y="0">p</tspan><tspan x="70.48" y="0">o</tspan></text></g><g class="cls-6"><g class="cls-4"><text class="cls-5" transform="translate(0 58.16)"></text></g><g class="cls-6"><g class="cls-4"><text class="cls-7" transform="translate(22.56 58.16)"><tspan class="cls-11">T</tspan><tspan class="cls-8" x="10.69" y="0">r</tspan><tspan x="18.72" y="0">a</tspan><tspan class="cls-9" x="27.72" y="0">b</tspan><tspan x="37.69" y="0">ajo</tspan><tspan class="cls-12" x="61.69" y="0"> </tspan><tspan class="cls-13" x="66.13" y="0">y</tspan><tspan class="cls-12" x="75.24" y="0"> </tspan><tspan class="cls-8" x="79.69" y="0">e</tspan><tspan class="cls-9" x="87.71" y="0">s</tspan><tspan x="94.68" y="0">t</tspan><tspan class="cls-14" x="100.67" y="0">ud</tspan><tspan class="cls-8" x="120.62" y="0">i</tspan><tspan x="125.66" y="0">o</tspan><tspan class="cls-10" x="134.66" y="0"> </tspan><tspan class="cls-15" x="139.21" y="0">r</tspan><tspan class="cls-16" x="146.9" y="0">e</tspan><tspan class="cls-17" x="154.92" y="0">sp</tspan><tspan x="171.87" y="0">o</tspan><tspan class="cls-9" x="180.87" y="0">ns</tspan><tspan x="197.81" y="0">a</tspan><tspan class="cls-9" x="206.81" y="0">b</tspan><tspan class="cls-8" x="216.79" y="0">l</tspan><tspan x="221.82" y="0">e</tspan></text></g><g class="cls-6"><g class="cls-4"><text class="cls-5" transform="translate(0 79.77)"></text></g><g class="cls-6"><g class="cls-4"><text class="cls-7" transform="translate(22.56 79.77)"><tspan class="cls-8">P</tspan><tspan x="11.03" y="0">a</tspan><tspan class="cls-9" x="20.03" y="0">s</tspan><tspan class="cls-8" x="27" y="0">i</tspan><tspan x="32.04" y="0">ó</tspan><tspan class="cls-9" x="41.04" y="0">n</tspan><tspan class="cls-12" x="51.01" y="0"> </tspan><tspan class="cls-13" x="55.46" y="0">y</tspan><tspan class="cls-12" x="64.57" y="0"> </tspan><tspan class="cls-8" x="69.01" y="0">c</tspan><tspan x="77.04" y="0">a</tspan><tspan class="cls-18" x="86.04" y="0">li</tspan><tspan class="cls-14" x="96.11" y="0">d</tspan><tspan class="cls-8" x="106.09" y="0">e</tspan><tspan x="114.11" y="0">z</tspan></text></g><g class="cls-6"><g class="cls-4"><text class="cls-5" transform="translate(0 101.37)"></text></g><g class="cls-6"><g class="cls-4"><text class="cls-7" transform="translate(22.56 101.37)">Ex<tspan class="cls-8" x="21.01" y="0">cele</tspan><tspan class="cls-9" x="50.12" y="0">n</tspan><tspan class="cls-8" x="60.09" y="0">ci</tspan><tspan x="73.16" y="0">a</tspan></text></g></g></g></g></g></g></g></g></g></g></svg>