<svg id="Capa_1" data-name="Capa 1" xmlns="http://www.w3.org/2000/svg" xmlns:xlink="http://www.w3.org/1999/xlink" viewBox="0 0 270.24 141.72"><defs><style>.cls-1,.cls-2,.cls-3{fill:none;}.cls-2{clip-rule:evenodd;}.cls-3{fill-rule:evenodd;}.cls-4{clip-path:url(#clip-path);}.cls-5{font-size:44.04px;fill:blue;stroke:blue;stroke-miterlimit:10;stroke-width:1.26px;font-family:EdwardianScriptITC, Edwardian Script ITC;}.cls-6{letter-spacing:0em;}.cls-7{letter-spacing:0em;}.cls-8{letter-spacing:0em;}.cls-9{clip-path:url(#clip-path-2);}.cls-10,.cls-26{font-size:18px;font-weight:700;}.cls-10{fill:#002060;font-family:TimesNewRomanPS-BoldMT, Times New Roman;}.cls-11{letter-spacing:0em;}.cls-12{letter-spacing:0em;}.cls-13{letter-spacing:0em;}.cls-14{letter-spacing:-0.02em;}.cls-15{letter-spacing:0em;}.cls-16{letter-spacing:-0.01em;}.cls-17{letter-spacing:-0.02em;}.cls-18{letter-spacing:0em;}.cls-19{letter-spacing:0em;}.cls-20{letter-spacing:0em;}.cls-21{letter-spacing:0em;}.cls-22{letter-spacing:0em;}.cls-23{letter-spacing:0em;}.cls-24{letter-spacing:0em;}.cls-25{letter-spacing:-0.01em;}.cls-26{font-family:TimesNewRomanPS-BoldItalicMT, Times New Roman;font-style:italic;}</style><clipPath id="clip-path"><rect class="cls-1" x="0.12" y="0.12" width="270.24" height="141.72"/></clipPath><clipPath id="clip-path-2"><polygon class="cls-2" points="0.12 141.84 270.36 141.84 270.36 0.12 0.12 0.12 0.12 141.84 0.12 141.84"/></clipPath></defs><g class="cls-4"><text class="cls-5" transform="translate(91.87 51.6)"><tspan class="cls-6">Vi</tspan><tspan class="cls-7" x="40.65" y="0">s</tspan><tspan x="49.27" y="0">i</tspan><tspan class="cls-8" x="56.67" y="0">ó</tspan><tspan x="69.4" y="0">n</tspan></text></g><g class="cls-9"><g class="cls-4"><text class="cls-10" transform="translate(49.04 83.62)">“<tspan class="cls-11" x="9" y="0"> </tspan><tspan class="cls-12" x="13.55" y="0">S</tspan><tspan class="cls-13" x="23.53" y="0">e</tspan><tspan class="cls-14" x="31.55" y="0">r</tspan><tspan class="cls-15" x="39.24" y="0"> </tspan><tspan class="cls-13" x="43.68" y="0">el</tspan><tspan class="cls-15" x="56.75" y="0"> </tspan><tspan class="cls-13" x="61.19" y="0">c</tspan><tspan x="69.22" y="0">o</tspan><tspan class="cls-13" x="78.22" y="0">le</tspan><tspan x="91.28" y="0">g</tspan><tspan class="cls-13" x="100.28" y="0">i</tspan><tspan x="105.32" y="0">o</tspan><tspan class="cls-16" x="114.32" y="0"> </tspan><tspan class="cls-13" x="118.64" y="0">lí</tspan><tspan class="cls-12" x="128.71" y="0">d</tspan><tspan class="cls-13" x="138.68" y="0">e</tspan><tspan class="cls-17" x="146.71" y="0">r</tspan><tspan class="cls-18" x="154.39" y="0"> </tspan><tspan class="cls-13" x="158.84" y="0">e</tspan><tspan class="cls-12" x="166.86" y="0">n</tspan><tspan x="176.84" y="0"> </tspan></text></g><g class="cls-9"><g class="cls-4"><text class="cls-10" transform="translate(33.08 105.21)"><tspan class="cls-13">M</tspan><tspan x="17.03" y="0">a</tspan><tspan class="cls-19" x="26.03" y="0">l</tspan><tspan x="31.06" y="0">am</tspan><tspan class="cls-20" x="55.06" y="0">b</tspan><tspan x="65.03" y="0">o</tspan><tspan class="cls-21" x="74.03" y="0">,</tspan><tspan class="cls-22" x="78.58" y="0"> </tspan><tspan class="cls-12" x="83.03" y="0">p</tspan><tspan class="cls-14" x="93.01" y="0">r</tspan><tspan class="cls-23" x="100.69" y="0">e</tspan><tspan x="108.71" y="0">f</tspan><tspan class="cls-24" x="114.71" y="0">eri</tspan><tspan class="cls-12" x="135.8" y="0">d</tspan><tspan x="145.77" y="0">o</tspan><tspan class="cls-25" x="154.77" y="0"> </tspan><tspan class="cls-12" x="159.09" y="0">p</tspan><tspan x="169.07" y="0">o</tspan><tspan class="cls-17" x="178.07" y="0">r</tspan><tspan class="cls-21" x="185.75" y="0"> </tspan><tspan class="cls-13" x="190.3" y="0">l</tspan><tspan x="195.34" y="0">a </tspan></text></g><g class="cls-9"><g class="cls-4"><text class="cls-10" transform="translate(87.8 126.82)"><tspan class="cls-13">c</tspan><tspan x="8.03" y="0">om</tspan><tspan class="cls-12" x="32.02" y="0">un</tspan><tspan class="cls-13" x="51.97" y="0">i</tspan><tspan class="cls-12" x="57.01" y="0">d</tspan><tspan x="66.98" y="0">ad</tspan></text></g><g class="cls-9"><g class="cls-4"><text class="cls-26" transform="translate(173.72 126.82)">”</text></g></g></g></g></g></svg>